<svg xmlns="http://www.w3.org/2000/svg" width="1200" height="1200" viewBox="0 0 1200 1200" role="img" aria-label="BUR-TEN-PLI-3X3">
<rect width="1200" height="1200" fill="#DFE6DC"/>
<rect x="36" y="36" width="1128" height="1128" fill="none" stroke="#A9BBA6" stroke-opacity="0.55" stroke-width="2" rx="14"/>
<g transform="translate(116.16000000000003 286.08) scale(4.5)" fill="none" stroke="#26302A" stroke-width="2.2" stroke-linecap="round" stroke-linejoin="round" opacity="0.8"><path d="M32 8 4 52h56z"/><path d="M32 8v44M22 52l10-20 10 20"/></g><g transform="translate(456 286.08) scale(4.5)" fill="none" stroke="#26302A" stroke-width="2.2" stroke-linecap="round" stroke-linejoin="round" opacity="0.8"><path d="M32 8 4 52h56z"/><path d="M32 8v44M22 52l10-20 10 20"/></g><g transform="translate(795.8399999999999 286.08) scale(4.5)" fill="none" stroke="#26302A" stroke-width="2.2" stroke-linecap="round" stroke-linejoin="round" opacity="0.8"><path d="M32 8 4 52h56z"/><path d="M32 8v44M22 52l10-20 10 20"/></g><g transform="translate(116.16000000000003 625.92) scale(4.5)" fill="none" stroke="#26302A" stroke-width="2.2" stroke-linecap="round" stroke-linejoin="round" opacity="0.5"><path d="M32 8 4 52h56z"/><path d="M32 8v44M22 52l10-20 10 20"/></g><g transform="translate(456 625.92) scale(4.5)" fill="none" stroke="#26302A" stroke-width="2.2" stroke-linecap="round" stroke-linejoin="round" opacity="0.5"><path d="M32 8 4 52h56z"/><path d="M32 8v44M22 52l10-20 10 20"/></g><g transform="translate(795.8399999999999 625.92) scale(4.5)" fill="none" stroke="#26302A" stroke-width="2.2" stroke-linecap="round" stroke-linejoin="round" opacity="0.5"><path d="M32 8 4 52h56z"/><path d="M32 8v44M22 52l10-20 10 20"/></g><text x="72" y="1128" font-family="Inter, system-ui, sans-serif" font-size="34" font-weight="600" letter-spacing="0.08em" fill="#26302A" opacity="0.55">BUR-TEN-PLI-3X3</text>
</svg>